<?xml version="1.0" encoding="utf-8"?>
<svg viewBox="148.0249 176.2958 234.6202 82.8544" xmlns="http://www.w3.org/2000/svg">
  <defs/>
  <g transform="matrix(1, 0, 0, 1, 148.0249350670715, 72.52990830734234)">
    <g transform="matrix(1, 0, 0, 1, -38.960847, 82.852227)">
      <polygon class="cls-8" points="106.719 38.255 97.522 38.255 80 92.485 89.154 92.485 90.263 89.128 100.243 58.311 106.719 38.255" style="fill-rule: nonzero; paint-order: fill; fill-opacity: 0.82; fill: rgb(137, 222, 163);"/>
      <path d="M 93.277 92.321 C 131.037 94.498 132.925 57.992 105.006 55.941" style="paint-order: fill; fill-opacity: 0.82; fill: rgb(250, 250, 250);"/>
      <polygon class="cls-8" points="94.693 38.395 85.496 38.395 67.974 92.625 77.128 92.625 78.237 89.268 88.217 58.451 94.693 38.395" style="fill-rule: nonzero; paint-order: fill; fill-opacity: 0.82; fill: rgb(137, 222, 163);"/>
      <path d="M 37.77 61.36 Q 38.98 61.15 39.56 60.59 Q 40.13 60.04 40.13 58.45 L 40.13 52.35 Q 40.13 50.29 41.14 49.36 Q 42.16 48.43 44.92 48.44 L 44.94 49.07 Q 43.99 49.28 43.47 49.56 Q 42.95 49.84 42.71 50.24 Q 42.47 50.65 42.43 51.21 Q 42.39 51.77 42.39 52.55 L 42.39 57.09 Q 42.39 59.15 41.84 60.13 Q 41.29 61.12 39.87 61.56 L 39.87 61.64 Q 41.29 62.08 41.84 63.06 Q 42.39 64.04 42.39 66.11 L 42.39 70.65 Q 42.39 71.43 42.43 71.99 Q 42.47 72.55 42.71 72.95 Q 42.95 73.35 43.47 73.63 Q 43.99 73.92 44.92 74.12 L 44.94 74.75 Q 42.16 74.76 41.14 73.83 Q 40.13 72.9 40.13 70.84 L 40.13 64.74 Q 40.13 63.16 39.56 62.6 Q 38.98 62.05 37.79 61.83 Z" transform="matrix(1.766549, 0, 0, 2.41336, -25.823796, -82.844125)" style="fill: rgb(250, 250, 250);"/>
      <path d="M 130.17 90.77 Q 128.5 90.77 127.4 89.62 Q 126.31 88.46 126.31 86.9 Q 126.31 85.31 127.4 84.17 Q 128.5 83.04 130.17 83.04 Q 131.85 83.04 132.94 84.17 Q 134.03 85.31 134.03 86.9 Q 134.03 88.46 132.94 89.62 Q 131.85 90.77 130.17 90.77 Z" style="fill: rgb(168, 81, 99); text-transform: lowercase;"/>
      <path d="M 150.7 90.77 Q 147.86 90.77 145.75 89.87 Q 143.64 88.97 142.28 87.43 Q 140.91 85.89 140.23 83.98 Q 139.55 82.07 139.55 80.04 Q 139.55 78.01 140.23 76.1 Q 140.91 74.19 142.28 72.65 Q 143.64 71.11 145.75 70.21 Q 147.86 69.32 150.7 69.32 Q 153.67 69.32 155.58 70.15 Q 157.49 70.99 158.58 72.22 Q 159.67 73.45 160.2 74.7 Q 160.73 75.95 160.86 76.78 Q 161 77.62 161 77.62 L 154.17 77.62 Q 154.17 77.62 154.08 77.23 Q 153.98 76.84 153.65 76.34 Q 153.32 75.83 152.67 75.44 Q 152.03 75.05 150.94 75.05 Q 148.95 75.05 147.95 76.51 Q 146.96 77.97 146.96 80.04 Q 146.96 82.11 147.95 83.57 Q 148.95 85.03 150.94 85.03 Q 152.03 85.03 152.67 84.64 Q 153.32 84.25 153.65 83.75 Q 153.98 83.24 154.08 82.85 Q 154.17 82.46 154.17 82.46 L 161 82.46 Q 161 82.46 160.86 83.3 Q 160.73 84.14 160.2 85.36 Q 159.67 86.59 158.58 87.84 Q 157.49 89.09 155.58 89.93 Q 153.67 90.77 150.7 90.77 Z M 171.53 90.77 Q 167.98 90.77 165.45 89.28 Q 162.91 87.8 161.59 85.36 Q 160.26 82.93 160.26 80.04 Q 160.26 77.15 161.59 74.72 Q 162.91 72.28 165.45 70.8 Q 167.98 69.32 171.53 69.32 Q 175.12 69.32 177.64 70.8 Q 180.15 72.28 181.48 74.72 Q 182.8 77.15 182.8 80.04 Q 182.8 82.93 181.48 85.36 Q 180.15 87.8 177.64 89.28 Q 175.12 90.77 171.53 90.77 Z M 171.53 84.84 Q 173.33 84.84 174.36 83.45 Q 175.39 82.07 175.39 80.04 Q 175.39 78.01 174.36 76.63 Q 173.33 75.24 171.53 75.24 Q 169.74 75.24 168.71 76.63 Q 167.67 78.01 167.67 80.04 Q 167.67 82.07 168.71 83.45 Q 169.74 84.84 171.53 84.84 Z M 192.83 90.77 Q 190.56 90.77 188.91 89.85 Q 187.25 88.93 186.14 87.39 Q 185.03 85.85 184.48 83.94 Q 183.93 82.03 183.93 80.04 Q 183.93 78.05 184.48 76.14 Q 185.03 74.23 186.14 72.69 Q 187.25 71.15 188.91 70.23 Q 190.56 69.32 192.83 69.32 Q 194.35 69.32 195.44 69.73 Q 196.53 70.13 197.21 70.64 Q 197.9 71.15 198.23 71.56 Q 198.56 71.97 198.56 71.97 L 198.87 71.97 L 198.87 60.74 L 206.28 60.74 L 206.28 90.38 L 198.87 90.38 L 198.87 88.11 L 198.56 88.11 Q 198.56 88.11 198.23 88.52 Q 197.9 88.93 197.21 89.44 Q 196.53 89.95 195.44 90.36 Q 194.35 90.77 192.83 90.77 Z M 195.28 84.88 Q 196.57 84.88 197.43 84.16 Q 198.29 83.43 198.72 82.32 Q 199.14 81.21 199.14 80.04 Q 199.14 78.87 198.72 77.76 Q 198.29 76.65 197.43 75.93 Q 196.57 75.2 195.28 75.2 Q 194 75.2 193.14 75.93 Q 192.28 76.65 191.85 77.76 Q 191.42 78.87 191.42 80.04 Q 191.42 81.21 191.85 82.32 Q 192.28 83.43 193.14 84.16 Q 194 84.88 195.28 84.88 Z M 218.68 90.77 Q 215.84 90.77 213.75 89.87 Q 211.66 88.97 210.3 87.43 Q 208.93 85.89 208.27 83.96 Q 207.61 82.03 207.61 80 Q 207.61 78.05 208.25 76.14 Q 208.89 74.23 210.22 72.69 Q 211.55 71.15 213.59 70.23 Q 215.64 69.32 218.45 69.32 Q 221.49 69.32 223.79 70.6 Q 226.09 71.89 227.38 74.33 Q 228.67 76.76 228.67 80.24 L 228.67 81.91 L 215.06 81.91 Q 215.17 83.24 216.09 84.25 Q 217.01 85.27 218.68 85.27 Q 219.97 85.27 220.63 84.82 Q 221.3 84.37 221.53 83.92 Q 221.76 83.47 221.76 83.47 L 228.55 83.47 Q 228.55 83.47 228.36 84.21 Q 228.16 84.95 227.61 86.03 Q 227.07 87.1 225.98 88.19 Q 224.88 89.28 223.11 90.02 Q 221.34 90.77 218.68 90.77 Z M 215.02 77.82 L 221.61 77.82 Q 221.57 76.22 220.67 75.42 Q 219.78 74.62 218.29 74.62 Q 217.05 74.62 216.09 75.4 Q 215.13 76.18 215.02 77.82 Z" style="fill: rgb(241, 239, 242); text-transform: lowercase;"/>
      <path d="M 265.69 62.49 L 265.69 57.96 L 270.22 57.96 L 270.22 62.49 Z M 265.69 70.55 L 270.22 70.55 L 270.22 73.78 Q 270.22 75.75 269.88 76.89 Q 269.54 78.02 268.6 78.92 Q 267.66 79.83 266.21 80.34 L 265.32 78.47 Q 266.69 78.02 267.27 77.22 Q 267.85 76.41 267.88 75.07 L 265.69 75.07 Z" style="fill: rgb(168, 81, 99);"/>
    </g>
    <path d="M 238.4 76.07 Q 237.21 76.29 236.63 76.84 Q 236.06 77.4 236.06 78.98 L 236.06 85.08 Q 236.06 87.15 235.05 88.08 Q 234.04 89.01 231.27 88.99 L 231.25 88.36 Q 232.2 88.16 232.72 87.88 Q 233.24 87.6 233.48 87.19 Q 233.72 86.79 233.76 86.23 Q 233.8 85.67 233.8 84.89 L 233.8 80.35 Q 233.8 78.29 234.35 77.3 Q 234.9 76.32 236.32 75.88 L 236.32 75.8 Q 234.9 75.36 234.35 74.38 Q 233.8 73.39 233.8 71.33 L 233.8 66.79 Q 233.8 66.01 233.76 65.45 Q 233.72 64.89 233.48 64.49 Q 233.24 64.08 232.72 63.8 Q 232.2 63.52 231.27 63.32 L 231.25 62.69 Q 234.04 62.67 235.05 63.6 Q 236.06 64.53 236.06 66.6 L 236.06 72.7 Q 236.06 74.28 236.63 74.84 Q 237.21 75.39 238.43 75.61 Z" transform="matrix(1.877141, 0, 0, 2.399886, -226.254428, -33.666848)" style="fill: rgb(250, 250, 250);"/>
  </g>
</svg>